<svg width="36" height="34" viewBox="0 0 36 34" fill="none" xmlns="http://www.w3.org/2000/svg">
<path d="M35.5565 16.0179C32.9745 12.2569 27.6365 17.7919 17.8945 18.9169C14.2875 19.3329 11.0375 22.3449 6.84748 22.0579C5.12948 21.9399 2.73048 16.9969 0.93448 17.7849C0.01048 18.1909 -0.41352 19.5459 0.53648 20.5639L11.0845 33.1499C11.0845 33.1499 11.6205 33.7679 13.4265 33.3399C13.8715 33.4709 20.5615 30.7899 24.4295 25.4229C25.3555 24.1379 26.4595 23.0679 27.6025 22.1739C31.3135 19.4299 35.3475 18.4739 35.3475 18.4739C35.8635 18.0479 35.9845 17.5949 35.9565 17.2019C35.9905 16.5459 35.5565 16.0179 35.5565 16.0179V16.0179Z" fill="#5C913B"/>
<path d="M11.4305 10.0118C7.64748 15.2618 1.02248 17.7488 1.02248 17.7488C-0.21352 18.7958 0.83048 20.0298 0.83048 20.0298L11.2685 32.3888C11.2685 32.3888 11.7905 33.0058 13.5485 32.5778C13.5485 32.5778 20.1735 30.0958 23.9555 24.8458C27.8545 19.4358 34.8855 17.7278 34.8855 17.7278C36.1205 16.6808 35.0775 15.4448 35.0775 15.4448L24.6395 3.08783C24.6395 3.08783 24.1175 2.46983 22.3595 2.89583C22.3595 2.89583 15.3295 4.59983 11.4305 10.0118V10.0118Z" fill="#A7D28B"/>
<path d="M21.9545 19.2379C24.992 19.2379 27.4545 16.7754 27.4545 13.7379C27.4545 10.7003 24.992 8.23785 21.9545 8.23785C18.9169 8.23785 16.4545 10.7003 16.4545 13.7379C16.4545 16.7754 18.9169 19.2379 21.9545 19.2379Z" fill="#77B255"/>
<path d="M12.8275 31.6668C11.9465 31.6668 11.6235 31.3388 11.5795 31.2888L2.17048 20.3058C2.15248 20.2848 1.67548 19.7388 1.73348 19.0448C1.76848 18.6238 1.98648 18.2488 2.38048 17.9298L2.44348 17.8918C2.50448 17.8678 8.60648 15.3598 12.0265 10.8268L12.2265 10.9768L12.0265 10.8268C15.6445 6.03084 21.8855 3.97284 21.9475 3.95284C23.6925 3.54684 24.2635 4.12684 24.3245 4.19484L33.6095 15.2388C33.6265 15.2568 34.1025 15.8048 34.0445 16.4998C34.0095 16.9198 33.7915 17.2948 33.3975 17.6138L33.2985 17.6628C33.2375 17.6778 27.1695 19.1858 23.6545 23.8438C20.1555 28.4838 14.0475 31.4858 13.9865 31.5148C13.5225 31.6248 13.1405 31.6668 12.8275 31.6668V31.6668ZM11.9565 30.9598C11.9575 30.9598 12.4085 31.3758 13.8215 31.0478C13.8295 31.0368 19.8305 28.0858 23.2575 23.5438C26.6945 18.9888 32.4825 17.3618 33.1245 17.1928C33.3815 16.9718 33.5235 16.7268 33.5465 16.4638C33.5885 15.9838 33.2345 15.5708 33.2315 15.5668L23.9465 4.52184C23.9445 4.52184 23.4965 4.10684 22.0825 4.43484C22.0415 4.44884 15.9475 6.46084 12.4265 11.1278C9.06048 15.5888 3.18748 18.1228 2.66848 18.3408C2.40048 18.5658 2.25448 18.8168 2.23148 19.0858C2.19148 19.5618 2.54348 19.9728 2.54648 19.9768L11.9565 30.9598V30.9598Z" fill="#5C913B"/>
<path d="M21.2305 21.9038L21.2245 27.8438L21.7215 28.4338C22.6905 27.5498 23.6215 26.5558 24.4265 25.4378C25.2615 24.2798 26.2315 23.2888 27.2545 22.4518L26.7715 21.8768L21.2305 21.9038V21.9038Z" fill="#FFAC33"/>
<path d="M26.7525 21.8558L14.2465 7.04285C13.2305 7.87885 12.2545 8.85385 11.4245 10.0068C10.6135 11.1328 9.66948 12.1238 8.68948 12.9978L10.1515 14.7288L10.1505 14.7298L21.2255 27.8438C22.2055 26.9688 23.1385 25.9678 23.9505 24.8408C24.7805 23.6888 25.7555 22.7148 26.7705 21.8788L26.7515 21.8558H26.7525V21.8558Z" fill="#FFE8B6"/>
<path d="M14.4335 22.2928C12.8765 20.4488 9.58048 23.4408 8.64048 22.3278C8.18548 21.7888 8.47848 21.0898 9.07648 20.5858C10.0815 19.7358 10.8065 20.2308 11.2615 19.8458C11.5845 19.5738 11.5675 19.2408 11.3755 19.0118C10.9295 18.4848 9.78948 18.7598 8.90348 19.2718L8.47248 18.7618C8.20348 18.4438 7.72748 18.4028 7.40948 18.6718C7.09148 18.9418 7.05148 19.4158 7.32048 19.7338L7.76648 20.2628C7.08948 21.1608 6.85948 22.3528 7.66048 23.2998C9.15648 25.0698 12.4935 22.1278 13.5435 23.3718C13.9075 23.8038 13.8055 24.6278 13.0395 25.2738C11.8915 26.2448 10.8515 25.7898 10.3845 26.1838C10.1565 26.3748 10.1155 26.7388 10.3585 27.0278C10.7455 27.4848 11.9785 27.3868 13.1635 26.6488C13.1655 26.6508 13.1655 26.6528 13.1655 26.6548L13.6525 27.2308C13.9215 27.5488 14.3985 27.5878 14.7165 27.3208C15.0355 27.0508 15.0745 26.5748 14.8055 26.2568L14.3185 25.6808C14.3135 25.6748 14.3055 25.6708 14.2995 25.6648C15.0985 24.6868 15.3685 23.3978 14.4335 22.2928V22.2928Z" fill="#5C913B"/>
<path d="M32.4105 32.3258C32.4195 32.3178 32.4295 32.3118 32.4385 32.3048C32.5065 32.2368 32.5595 32.1588 32.6195 32.0838C32.6615 32.0318 32.7085 31.9818 32.7475 31.9288C32.7825 31.8788 32.8115 31.8278 32.8435 31.7768C34.2635 29.5898 33.3335 25.8818 30.5225 23.0698C27.7105 20.2578 24.0015 19.3278 21.8155 20.7488C21.7635 20.7798 21.7125 20.8088 21.6625 20.8448C21.6095 20.8838 21.5585 20.9308 21.5085 20.9718C21.4345 21.0328 21.3565 21.0848 21.2875 21.1538C21.2785 21.1628 21.2725 21.1728 21.2655 21.1818C21.2545 21.1928 21.2415 21.1998 21.2295 21.2118L21.2355 21.2168C20.2355 22.2788 20.2235 23.9218 21.2295 24.9288C22.2375 25.9368 23.8795 25.9228 24.9425 24.9228L24.9535 24.9348C24.9325 24.9548 24.9095 24.9678 24.8895 24.9878C23.8305 26.0468 23.8055 27.7358 24.8305 28.7628C25.8565 29.7878 27.5475 29.7628 28.6055 28.7038C28.6255 28.6838 28.6385 28.6608 28.6585 28.6398L28.6695 28.6518C27.6695 29.7138 27.6565 31.3568 28.6645 32.3648C29.6715 33.3708 31.3135 33.3588 32.3755 32.3588L32.3815 32.3648C32.3915 32.3508 32.3995 32.3378 32.4105 32.3258V32.3258Z" fill="#E1E8ED"/>
<path d="M21.2315 24.9689C22.1375 25.8739 23.5525 25.9479 24.6015 25.2299C25.0405 24.4799 25.1665 23.7669 25.1665 23.5439C22.9595 25.1899 20.9895 23.5529 20.5485 22.5739C20.3655 23.4199 20.5875 24.3239 21.2315 24.9689ZM28.5305 28.8089C28.8285 28.3899 29.0595 27.9849 29.1675 27.7109C27.7625 28.9989 25.0765 28.0559 24.2625 26.0129C23.9045 26.9629 24.0875 28.0569 24.8335 28.8029C25.8355 29.8049 27.4675 29.7969 28.5305 28.8089ZM32.3845 32.4039L32.4135 32.3679C32.4235 32.3599 32.4335 32.3539 32.4415 32.3459C32.5105 32.2779 32.5635 32.1999 32.6225 32.1259C32.6655 32.0729 32.7115 32.0239 32.7505 31.9699C32.7865 31.9209 32.8155 31.8689 32.8475 31.8179C32.9125 31.7179 32.9475 31.5999 33.0025 31.4939C30.4745 32.6249 28.5875 30.7059 28.0585 29.7489C27.7635 30.6659 27.9555 31.6929 28.6675 32.4059C29.6735 33.4129 31.3155 33.4009 32.3785 32.3999L32.3845 32.4039Z" fill="#CCD6DD"/>
<path d="M13.9105 12.2358L13.9385 12.2138C14.0075 12.1458 14.0605 12.0678 14.1195 11.9938C14.1615 11.9418 14.2075 11.8928 14.2465 11.8388C14.2825 11.7888 14.3115 11.7378 14.3435 11.6868C15.7635 9.49983 14.8325 5.79083 12.0215 2.97983C9.20948 0.167828 5.50148 -0.763172 3.31448 0.656828C3.26348 0.688828 3.21148 0.717828 3.16148 0.753828C3.10748 0.792828 3.05848 0.838828 3.00648 0.880828C2.93248 0.940828 2.85448 0.992828 2.78648 1.06183C2.77748 1.07083 2.77148 1.08183 2.76448 1.08983C2.75348 1.09983 2.73948 1.10883 2.72848 1.11983L2.73348 1.12483C1.73348 2.18683 1.72148 3.82983 2.72848 4.83683C3.73548 5.84383 5.37848 5.83183 6.44048 4.83183L6.45148 4.84283C6.43048 4.86183 6.40748 4.87583 6.38748 4.89583C5.32848 5.95483 5.30348 7.64383 6.32948 8.67083C7.35548 9.69783 9.04548 9.67183 10.1045 8.61283C10.1245 8.59283 10.1375 8.56983 10.1575 8.54883L10.1685 8.55983C9.16848 9.62183 9.15548 11.2648 10.1635 12.2718C11.1705 13.2788 12.8125 13.2668 13.8745 12.2658L13.8795 12.2718C13.8905 12.2608 13.8995 12.2478 13.9105 12.2358V12.2358Z" fill="#E1E8ED"/>
<path d="M2.72748 4.83786C3.63348 5.74386 5.04848 5.81786 6.09748 5.09786C6.53648 4.34786 6.66148 3.63586 6.66148 3.41286C4.45548 5.05786 2.48448 3.41986 2.04448 2.44086C1.86148 3.28786 2.08348 4.19286 2.72748 4.83786V4.83786ZM10.0285 8.67586C10.3255 8.25686 10.5565 7.85386 10.6635 7.57986C9.25748 8.86786 6.57148 7.92386 5.75848 5.88086C5.40048 6.83086 5.58348 7.92486 6.32848 8.67086C7.33248 9.67386 8.96548 9.66486 10.0285 8.67586V8.67586ZM13.8795 12.2729C13.8905 12.2619 13.8995 12.2489 13.9095 12.2369L13.9375 12.2149C14.0065 12.1469 14.0595 12.0689 14.1185 11.9949C14.1605 11.9429 14.2065 11.8939 14.2455 11.8399C14.2815 11.7899 14.3105 11.7389 14.3425 11.6879C14.4075 11.5879 14.4425 11.4689 14.4975 11.3629C11.9695 12.4939 10.0825 10.5759 9.55348 9.61886C9.25848 10.5359 9.45048 11.5629 10.1625 12.2749C11.1695 13.2819 12.8115 13.2699 13.8735 12.2689L13.8795 12.2729V12.2729Z" fill="#CCD6DD"/>
</svg>
